<?xml version="1.0" encoding="utf-8"?>
<!-- Generator: Adobe Illustrator 20.0.0, SVG Export Plug-In . SVG Version: 6.00 Build 0)  -->
<svg version="1.1" id="diverse_vormen" xmlns="http://www.w3.org/2000/svg" xmlns:xlink="http://www.w3.org/1999/xlink" x="0px"
	 y="0px" viewBox="0 0 127.6 127.6" style="enable-background:new 0 0 127.6 127.6;" xml:space="preserve">
<rect x="34.1" y="47.7" transform="matrix(0.8815 -0.4722 0.4722 0.8815 -25.8535 25.7249)" width="8.5" height="33.4"/>
<rect x="77" y="61.6" transform="matrix(0.4553 -0.8903 0.8903 0.4553 -8.0812 118.5686)" width="31.8" height="8.5"/>
<rect x="44.4" y="18.2" width="35.1" height="8.5"/>
<path d="M99.7,48c-10.4,0-18.9-8.5-18.9-18.9s8.5-18.9,18.9-18.9s18.9,8.5,18.9,18.9S110.1,48,99.7,48z M99.7,18.7
	c-5.7,0-10.4,4.7-10.4,10.4s4.7,10.4,10.4,10.4S110,34.9,110,29.1S105.4,18.7,99.7,18.7z"/>
<path d="M53,47.2H9.1L31,9.2L53,47.2z M23.8,38.7h14.4L31,26.2L23.8,38.7z"/>
<path d="M84.5,118.1h-37v-37h37V118.1z M56.1,109.6h20v-20h-20V109.6z"/>
</svg>
